<?xml version="1.0" encoding="iso-8859-1"?>
<!-- Generator: Adobe Illustrator 19.0.0, SVG Export Plug-In . SVG Version: 6.00 Build 0)  -->
<svg version="1.1" id="Layer_1" xmlns="http://www.w3.org/2000/svg" xmlns:xlink="http://www.w3.org/1999/xlink" x="0px" y="0px"
	 viewBox="0 0 512 512" style="enable-background:new 0 0 512 512;" xml:space="preserve">
<rect x="10.199" y="10.199" style="fill:#FFFFFF;" width="491.602" height="491.602"/>
<circle style="fill:#FC6760;" cx="256" cy="256" r="128.51"/>
<g>
	<path style="fill:#00537B;" d="M501.801,512H10.199C4.566,512,0,507.434,0,501.801V10.199C0,4.566,4.566,0,10.199,0h491.602
		C507.434,0,512,4.566,512,10.199v491.602C512,507.434,507.434,512,501.801,512z M20.398,491.602h471.203V20.398H20.398V491.602z"/>
	<path style="fill:#00537B;" d="M256,394.709c-76.485,0-138.709-62.224-138.709-138.709S179.515,117.291,256,117.291
		S394.709,179.515,394.709,256S332.485,394.709,256,394.709z M256,137.689c-65.236,0-118.311,53.075-118.311,118.311
		S190.764,374.311,256,374.311S374.311,321.236,374.311,256S321.236,137.689,256,137.689z"/>
	<path style="fill:#00537B;" d="M40.797,339.633c-5.633,0-10.199-4.566-10.199-10.199v-5.1c0-5.633,4.566-10.199,10.199-10.199
		s10.199,4.566,10.199,10.199v5.1C50.996,335.067,46.43,339.633,40.797,339.633z"/>
	<path style="fill:#00537B;" d="M40.797,470.183c-5.633,0-10.199-4.566-10.199-10.199v-94.853c0-5.633,4.566-10.199,10.199-10.199
		s10.199,4.566,10.199,10.199v94.853C50.996,465.617,46.43,470.183,40.797,470.183z"/>
</g>
<g>
</g>
<g>
</g>
<g>
</g>
<g>
</g>
<g>
</g>
<g>
</g>
<g>
</g>
<g>
</g>
<g>
</g>
<g>
</g>
<g>
</g>
<g>
</g>
<g>
</g>
<g>
</g>
<g>
</g>
</svg>
