<?xml version="1.0" encoding="iso-8859-1"?>
<!-- Generator: Adobe Illustrator 19.0.0, SVG Export Plug-In . SVG Version: 6.00 Build 0)  -->
<svg version="1.1" id="Layer_1" xmlns="http://www.w3.org/2000/svg" xmlns:xlink="http://www.w3.org/1999/xlink" x="0px" y="0px"
	 viewBox="0 0 512 512" style="enable-background:new 0 0 512 512;" xml:space="preserve">
<rect x="10.199" y="10.199" style="fill:#FFFFFF;" width="491.602" height="491.602"/>
<g>
	<circle style="fill:#FC6760;" cx="256" cy="414.842" r="48.956"/>
	<circle style="fill:#FC6760;" cx="256" cy="97.158" r="48.956"/>
	<circle style="fill:#FC6760;" cx="414.842" cy="256" r="48.956"/>
	<circle style="fill:#FC6760;" cx="97.158" cy="256" r="48.956"/>
</g>
<g>
	<path style="fill:#00537B;" d="M501.801,512H10.199C4.567,512,0,507.434,0,501.801V10.199C0,4.566,4.567,0,10.199,0h491.602
		C507.433,0,512,4.566,512,10.199v491.602C512,507.434,507.433,512,501.801,512z M20.398,491.602h471.203V20.398H20.398V491.602z"/>
	<path style="fill:#00537B;" d="M256,473.998c-15.801,0-30.657-6.153-41.83-17.326c-23.064-23.064-23.064-60.593,0-83.658
		c23.066-23.064,60.593-23.064,83.659,0c23.064,23.064,23.064,60.593,0,83.658l0,0l0,0C286.657,467.845,271.801,473.998,256,473.998
		z M256,376.104c-9.925,0-19.85,3.778-27.405,11.333c-15.111,15.111-15.111,39.698,0,54.81c7.32,7.321,17.053,11.352,27.405,11.352
		c10.352,0,20.085-4.032,27.405-11.352l0,0c15.111-15.111,15.111-39.698,0-54.81C275.85,379.882,265.925,376.104,256,376.104z"/>
	<path style="fill:#00537B;" d="M256,156.284c-15.149,0-30.297-5.766-41.83-17.298c-23.064-23.064-23.064-60.593,0-83.658
		c11.173-11.173,26.029-17.326,41.83-17.326c15.801,0,30.657,6.153,41.83,17.326c23.065,23.064,23.065,60.593,0,83.658
		C286.297,150.519,271.149,156.284,256,156.284z M256,58.401c-10.352,0-20.085,4.032-27.405,11.352
		c-15.111,15.111-15.111,39.699,0,54.811c15.111,15.111,39.699,15.111,54.811,0c15.111-15.111,15.111-39.698,0-54.809
		C276.085,62.431,266.352,58.401,256,58.401z"/>
	<path style="fill:#00537B;" d="M40.797,339.633c-5.632,0-10.199-4.566-10.199-10.199v-5.1c0-5.633,4.567-10.199,10.199-10.199
		s10.199,4.566,10.199,10.199v5.1C50.996,335.067,46.429,339.633,40.797,339.633z"/>
	<path style="fill:#00537B;" d="M40.797,470.183c-5.632,0-10.199-4.566-10.199-10.199v-94.853c0-5.633,4.567-10.199,10.199-10.199
		s10.199,4.566,10.199,10.199v94.853C50.996,465.617,46.429,470.183,40.797,470.183z"/>
	<path style="fill:#00537B;" d="M414.842,315.155c-15.801,0-30.657-6.153-41.83-17.326c-23.064-23.064-23.064-60.593,0-83.658
		c11.174-11.173,26.029-17.326,41.83-17.326c15.801,0,30.657,6.153,41.83,17.326l0,0l0,0c23.064,23.064,23.064,60.593,0,83.658
		C445.499,309.002,430.643,315.155,414.842,315.155z M414.842,217.243c-10.352,0-20.085,4.032-27.405,11.352
		c-15.111,15.111-15.111,39.699,0,54.811c7.32,7.321,17.053,11.352,27.405,11.352c10.352,0,20.085-4.032,27.405-11.352
		c15.111-15.111,15.111-39.699,0-54.811l0,0C434.929,221.275,425.196,217.243,414.842,217.243z"/>
	<path style="fill:#00537B;" d="M97.158,315.155c-15.801,0-30.657-6.153-41.83-17.326c-23.064-23.064-23.064-60.593,0-83.658
		c11.173-11.173,26.029-17.326,41.83-17.326s30.657,6.153,41.83,17.326l0,0l0,0c23.064,23.064,23.064,60.593,0,83.658
		C127.813,309.002,112.958,315.155,97.158,315.155z M97.158,217.243c-10.352,0-20.085,4.032-27.405,11.352
		c-15.111,15.111-15.111,39.699,0,54.811c7.32,7.321,17.053,11.352,27.405,11.352s20.085-4.032,27.405-11.352
		c15.111-15.111,15.111-39.699,0-54.811l0,0C117.243,221.275,107.51,217.243,97.158,217.243z"/>
</g>
<g>
</g>
<g>
</g>
<g>
</g>
<g>
</g>
<g>
</g>
<g>
</g>
<g>
</g>
<g>
</g>
<g>
</g>
<g>
</g>
<g>
</g>
<g>
</g>
<g>
</g>
<g>
</g>
<g>
</g>
</svg>
