<?xml version="1.0" encoding="iso-8859-1"?>
<!-- Generator: Adobe Illustrator 19.0.0, SVG Export Plug-In . SVG Version: 6.00 Build 0)  -->
<svg version="1.1" id="Layer_1" xmlns="http://www.w3.org/2000/svg" xmlns:xlink="http://www.w3.org/1999/xlink" x="0px" y="0px"
	 viewBox="0 0 512 512" style="enable-background:new 0 0 512 512;" xml:space="preserve">
<rect x="10.199" y="10.199" style="fill:#FFFFFF;" width="491.602" height="491.602"/>
<g>
	<circle style="fill:#FC6760;" cx="256" cy="414.842" r="48.956"/>
	<circle style="fill:#FC6760;" cx="256" cy="97.158" r="48.956"/>
	<circle style="fill:#FC6760;" cx="256" cy="256" r="48.956"/>
</g>
<g>
	<path style="fill:#00537B;" d="M501.801,512H10.199C4.566,512,0,507.434,0,501.801V10.199C0,4.566,4.566,0,10.199,0h491.602
		C507.433,0,512,4.566,512,10.199v491.602C512,507.434,507.433,512,501.801,512z M20.398,491.602h471.203V20.398H20.398V491.602z"/>
	<path style="fill:#00537B;" d="M256,473.998c-15.801,0-30.656-6.153-41.829-17.326c-11.173-11.173-17.326-26.028-17.326-41.829
		c0-15.801,6.153-30.656,17.326-41.829c23.064-23.064,60.593-23.063,83.658,0c23.064,23.064,23.064,60.593,0,83.658l0,0l0,0
		C286.657,467.845,271.802,473.998,256,473.998z M256,376.104c-9.925,0-19.85,3.778-27.405,11.333
		c-7.321,7.32-11.352,17.053-11.352,27.405c0,10.352,4.032,20.084,11.352,27.405c7.321,7.321,17.053,11.352,27.405,11.352
		c10.352,0,20.085-4.032,27.405-11.352l0,0c15.111-15.111,15.111-39.698,0-54.81C275.85,379.882,265.925,376.104,256,376.104z"/>
	<path style="fill:#00537B;" d="M256,156.284c-15.149,0-30.298-5.766-41.83-17.298c-11.172-11.173-17.325-26.028-17.325-41.829
		s6.153-30.656,17.326-41.829S240.199,38.002,256,38.002c15.802,0,30.657,6.153,41.83,17.326c23.065,23.064,23.065,60.593,0,83.658
		C286.297,150.519,271.149,156.284,256,156.284z M256,58.401c-10.352,0-20.084,4.032-27.405,11.352
		c-7.32,7.32-11.352,17.053-11.352,27.405s4.032,20.084,11.352,27.405c15.112,15.111,39.699,15.112,54.811,0
		c15.111-15.111,15.111-39.698,0-54.809C276.085,62.431,266.352,58.401,256,58.401z"/>
	<path style="fill:#00537B;" d="M40.797,339.633c-5.633,0-10.199-4.566-10.199-10.199v-5.1c0-5.633,4.566-10.199,10.199-10.199
		s10.199,4.566,10.199,10.199v5.1C50.996,335.067,46.43,339.633,40.797,339.633z"/>
	<path style="fill:#00537B;" d="M40.797,470.183c-5.633,0-10.199-4.566-10.199-10.199v-94.853c0-5.633,4.566-10.199,10.199-10.199
		s10.199,4.566,10.199,10.199v94.853C50.996,465.617,46.43,470.183,40.797,470.183z"/>
	<path style="fill:#00537B;" d="M256,315.155c-15.801,0-30.656-6.153-41.829-17.326c-11.173-11.173-17.326-26.028-17.326-41.829
		c0-15.801,6.153-30.656,17.326-41.829s26.028-17.326,41.829-17.326c15.802,0,30.657,6.153,41.83,17.326
		c23.065,23.064,23.065,60.593,0,83.658l0,0l0,0C286.657,309.002,271.802,315.155,256,315.155z M256,217.243
		c-10.352,0-20.084,4.032-27.405,11.352c-7.32,7.321-11.352,17.053-11.352,27.405c0,10.352,4.032,20.084,11.352,27.405
		c7.321,7.32,17.053,11.352,27.405,11.352c10.352,0,20.085-4.032,27.405-11.352l0,0c15.111-15.111,15.111-39.698,0-54.81
		C276.085,221.275,266.352,217.243,256,217.243z"/>
</g>
<g>
</g>
<g>
</g>
<g>
</g>
<g>
</g>
<g>
</g>
<g>
</g>
<g>
</g>
<g>
</g>
<g>
</g>
<g>
</g>
<g>
</g>
<g>
</g>
<g>
</g>
<g>
</g>
<g>
</g>
</svg>
