<?xml version="1.0" encoding="iso-8859-1"?>
<!-- Generator: Adobe Illustrator 19.0.0, SVG Export Plug-In . SVG Version: 6.00 Build 0)  -->
<svg version="1.1" id="Layer_1" xmlns="http://www.w3.org/2000/svg" xmlns:xlink="http://www.w3.org/1999/xlink" x="0px" y="0px"
	 viewBox="0 0 512 512" style="enable-background:new 0 0 512 512;" xml:space="preserve">
<rect x="10.199" y="10.199" style="fill:#FFFFFF;" width="491.602" height="491.602"/>
<g>
	<circle style="fill:#FC6760;" cx="101.666" cy="219.946" r="48.956"/>
	<circle style="fill:#FC6760;" cx="292.064" cy="410.334" r="48.956"/>
	<circle style="fill:#FC6760;" cx="196.865" cy="315.135" r="48.956"/>
	<circle style="fill:#FC6760;" cx="219.946" cy="101.666" r="48.956"/>
	<circle style="fill:#FC6760;" cx="410.334" cy="292.064" r="48.956"/>
	<circle style="fill:#FC6760;" cx="315.135" cy="196.865" r="48.956"/>
</g>
<g>
	<path style="fill:#00537B;" d="M501.801,512H10.199C4.566,512,0,507.434,0,501.801V10.199C0,4.566,4.566,0,10.199,0h491.602
		C507.434,0,512,4.566,512,10.199v491.602C512,507.434,507.434,512,501.801,512z M20.398,491.602h471.203V20.398H20.398V491.602z"/>
	<path style="fill:#00537B;" d="M40.797,339.633c-5.633,0-10.199-4.566-10.199-10.199v-5.1c0-5.633,4.566-10.199,10.199-10.199
		s10.199,4.566,10.199,10.199v5.1C50.996,335.067,46.43,339.633,40.797,339.633z"/>
	<path style="fill:#00537B;" d="M40.797,470.183c-5.633,0-10.199-4.566-10.199-10.199v-94.853c0-5.633,4.566-10.199,10.199-10.199
		s10.199,4.566,10.199,10.199v94.853C50.996,465.617,46.43,470.183,40.797,470.183z"/>
	<path style="fill:#00537B;" d="M101.665,279.096c-32.618,0-59.155-26.537-59.155-59.155s26.537-59.155,59.155-59.155
		s59.155,26.537,59.155,59.155S134.284,279.096,101.665,279.096z M101.665,181.184c-21.37,0-38.757,17.387-38.757,38.757
		s17.387,38.757,38.757,38.757s38.757-17.387,38.757-38.757S123.035,181.184,101.665,181.184z"/>
	<path style="fill:#00537B;" d="M292.059,469.491c-32.618,0-59.155-26.537-59.155-59.155s26.537-59.155,59.155-59.155
		s59.155,26.537,59.155,59.155S324.678,469.491,292.059,469.491z M292.059,371.578c-21.37,0-38.757,17.387-38.757,38.757
		s17.387,38.757,38.757,38.757s38.757-17.387,38.757-38.757S313.431,371.578,292.059,371.578z"/>
	<path style="fill:#00537B;" d="M196.862,374.293c-32.618,0-59.155-26.537-59.155-59.155s26.537-59.155,59.155-59.155
		s59.155,26.537,59.155,59.155S229.481,374.293,196.862,374.293z M196.862,276.381c-21.37,0-38.757,17.387-38.757,38.757
		s17.387,38.757,38.757,38.757s38.757-17.387,38.757-38.757S218.232,276.381,196.862,276.381z"/>
	<path style="fill:#00537B;" d="M219.941,160.82c-32.618,0-59.155-26.537-59.155-59.155s26.537-59.155,59.155-59.155
		s59.155,26.537,59.155,59.155S252.559,160.82,219.941,160.82z M219.941,62.908c-21.37,0-38.757,17.387-38.757,38.757
		s17.387,38.757,38.757,38.757s38.757-17.387,38.757-38.757S241.311,62.908,219.941,62.908z"/>
	<path style="fill:#00537B;" d="M410.335,351.215c-32.618,0-59.155-26.537-59.155-59.155s26.537-59.155,59.155-59.155
		s59.155,26.537,59.155,59.155S442.953,351.215,410.335,351.215z M410.335,253.302c-21.37,0-38.757,17.387-38.757,38.757
		s17.387,38.757,38.757,38.757s38.757-17.387,38.757-38.757S431.706,253.302,410.335,253.302z"/>
	<path style="fill:#00537B;" d="M315.138,256.017c-32.618,0-59.155-26.537-59.155-59.155s26.537-59.155,59.155-59.155
		s59.155,26.537,59.155,59.155S347.756,256.017,315.138,256.017z M315.138,158.105c-21.37,0-38.757,17.387-38.757,38.757
		s17.387,38.757,38.757,38.757s38.757-17.387,38.757-38.757S336.508,158.105,315.138,158.105z"/>
</g>
<g>
</g>
<g>
</g>
<g>
</g>
<g>
</g>
<g>
</g>
<g>
</g>
<g>
</g>
<g>
</g>
<g>
</g>
<g>
</g>
<g>
</g>
<g>
</g>
<g>
</g>
<g>
</g>
<g>
</g>
</svg>
